# xmcd CD database file
#
# Track frame offsets:
#	150
#	12660
#	24405
#	34527
#	47387
#	60070
#	74512
#	89430
#	113635
#	131260
#	151952
#	170320
#	184177
#	197845
#	208980
#	222372
#	235042
#	246142
#	258622
#	275745
#
# Disc length: 3921 seconds
#
# Revision: 1
# Processed by: cddbd v1.5.1PL0 Copyright (c) Steve Scherf et al.
# Submitted via: CDex 1.51
#
DISCID=170f4f14
DTITLE=Louise Forestier - Québec Love
DYEAR=2001
DGENRE=Country
TTITLE0=La Boulée
TTITLE1=Le Vent
TTITLE2=La Ville Depuis
TTITLE3=Ouaouarons
TTITLE4=Tu ne ris Plus
TTITLE5=From Santa to America
TTITLE6=Quand t'es pas là
TTITLE7=Le Cantic du Titanic
TTITLE8=Le Mont Athos
TTITLE9=California
TTITLE10=Tzagadou
TTITLE11=Le Temps des Enzymes
TTITLE12=Au Revoir Peut-Être
TTITLE13=La prison de Londres
TTITLE14=J'Pense que c'est l'Temps
TTITLE15=Le Reel de la Cour
TTITLE16=Les Bûcherons
TTITLE17=Les Montréalais
TTITLE18=L'Hirondelle
TTITLE19=Pourquoi Chanter
EXTD=YEAR: 2001
EXTT0=
EXTT1=
EXTT2=
EXTT3=
EXTT4=
EXTT5=
EXTT6=
EXTT7=
EXTT8=
EXTT9=
EXTT10=
EXTT11=
EXTT12=
EXTT13=
EXTT14=
EXTT15=
EXTT16=
EXTT17=
EXTT18=
EXTT19=
PLAYORDER=
